<?xml version="1.0" standalone="no"?>
<!DOCTYPE svg PUBLIC "-//W3C//DTD SVG 20010904//EN"
 "http://www.w3.org/TR/2001/REC-SVG-20010904/DTD/svg10.dtd">
<svg version="1.0" xmlns="http://www.w3.org/2000/svg"
 width="2164.000000pt" height="2360.000000pt" viewBox="0 0 2164.000000 2360.000000"
 preserveAspectRatio="xMidYMid meet">

<g transform="translate(0.000000,2360.000000) scale(0.100000,-0.100000)"
fill="#000000" stroke="none">
<path d="M12255 22153 c-41 -8 -201 -67 -235 -87 -63 -36 -147 -116 -173 -165
-40 -73 -51 -137 -38 -233 7 -49 20 -95 33 -117 28 -46 91 -106 143 -134 67
-37 70 -52 67 -297 -2 -118 -5 -238 -7 -265 -2 -28 -4 -151 -5 -274 l-2 -224
-30 -48 c-16 -27 -104 -124 -196 -217 -92 -93 -223 -229 -292 -302 -69 -72
-144 -152 -167 -176 -24 -25 -43 -50 -44 -57 0 -7 -2 -165 -4 -352 -5 -341
-13 -697 -19 -810 -6 -102 -16 -363 -21 -515 -3 -80 -8 -192 -11 -250 -4 -58
-8 -197 -8 -310 l-1 -204 34 -7 c45 -9 177 1 195 15 15 12 21 97 31 461 6 195
12 343 20 435 2 25 7 140 10 255 4 116 9 226 10 245 1 19 5 226 9 460 4 234 9
441 12 460 5 32 35 81 74 120 8 8 24 27 35 41 11 14 30 31 43 38 12 6 22 15
22 19 0 4 39 49 88 98 48 50 119 126 157 169 127 141 156 165 201 165 71 0 76
-32 78 -455 2 -218 -1 -307 -10 -325 -7 -14 -57 -70 -111 -126 -147 -151 -164
-221 -97 -402 47 -126 68 -153 123 -155 22 -1 41 -5 41 -9 0 -5 -5 -8 -11 -8
-6 0 -8 -7 -5 -16 7 -19 -5 -43 -63 -119 -52 -69 -63 -82 -125 -150 -25 -27
-46 -53 -46 -57 0 -5 -4 -8 -10 -8 -8 0 -110 -98 -110 -106 0 -2 -11 -20 -25
-40 -14 -20 -25 -50 -25 -66 0 -65 87 -131 167 -126 37 1 46 7 77 48 20 26 36
50 36 53 0 7 24 38 51 67 9 9 30 38 48 63 18 26 38 47 46 47 8 0 15 4 15 10 0
8 36 47 72 76 20 16 90 96 117 134 27 37 25 85 -6 118 -10 11 -28 31 -40 45
-27 30 -63 38 -110 25 -19 -5 -37 -7 -39 -5 -10 10 -5 285 5 327 23 87 59 137
121 167 19 9 38 21 42 27 4 6 11 6 20 -1 7 -6 31 -14 53 -18 52 -10 202 -83
241 -119 10 -10 45 -33 76 -52 53 -33 57 -38 64 -81 4 -26 4 -100 1 -165 -9
-166 -16 -177 -218 -383 -237 -241 -286 -310 -280 -398 1 -21 91 -80 148 -97
60 -18 87 -8 101 37 35 116 112 220 302 413 78 80 156 167 173 194 l30 48 -11
147 c-7 80 -12 183 -12 228 0 125 -15 167 -74 211 -168 125 -141 108 -401 250
-22 12 -45 22 -52 22 -35 0 -45 74 -41 303 1 106 3 297 3 426 l0 233 -41 37
c-44 39 -75 56 -114 65 -53 11 -55 23 -55 381 0 182 1 382 3 447 l3 116 32 13
c128 52 277 214 277 301 0 13 4 28 10 34 5 5 11 48 12 94 3 76 0 92 -26 147
-34 74 -106 137 -194 169 -59 22 -133 34 -167 27z"/>
<path d="M9055 21521 c-87 -30 -145 -57 -145 -69 0 -4 -15 -23 -34 -42 -33
-35 -52 -72 -75 -142 -10 -31 -9 -50 8 -120 20 -81 22 -84 91 -150 39 -37 75
-80 79 -95 4 -15 4 -84 -2 -153 -15 -198 -15 -862 1 -867 6 -3 12 -10 12 -17
0 -13 34 -44 102 -94 226 -165 314 -235 353 -281 64 -75 70 -117 56 -373 -6
-117 -14 -325 -16 -463 -3 -137 -7 -277 -10 -310 -2 -33 -7 -121 -10 -195 -3
-74 -10 -196 -15 -270 -5 -74 -12 -193 -15 -265 -3 -71 -8 -166 -11 -210 -10
-148 -11 -440 -2 -452 7 -8 22 -8 61 2 95 25 137 39 137 47 0 4 7 5 15 2 8 -4
15 -1 15 4 0 6 10 12 22 14 32 4 36 38 37 308 0 287 10 862 16 985 3 50 7 225
10 390 3 165 7 347 10 405 15 303 15 317 0 390 -14 66 -31 99 -78 150 -18 19
-35 33 -144 116 -48 37 -104 81 -123 99 -19 18 -45 39 -58 47 -56 38 -102 90
-113 131 -11 40 -14 266 -5 367 2 25 5 133 6 240 3 207 18 305 57 359 11 14
26 42 35 61 9 19 25 44 35 55 62 66 82 184 45 266 -23 52 -87 110 -147 132
-74 28 -114 28 -200 -2z"/>
<path d="M10615 21538 c-97 -15 -157 -35 -224 -76 -178 -107 -288 -260 -299
-416 -15 -205 90 -384 269 -457 77 -31 207 -52 304 -47 l60 3 -2 -64 c-1 -35
-7 -85 -12 -110 -6 -25 -13 -66 -16 -91 -2 -25 -18 -94 -33 -155 -28 -106 -31
-142 -10 -129 5 3 9 -2 8 -12 -5 -43 2 -62 31 -92 29 -29 37 -32 96 -32 72 0
100 11 113 44 4 12 11 110 14 217 11 339 17 463 27 500 6 24 27 53 61 85 112
105 117 112 172 237 29 67 41 168 28 227 -58 252 -313 411 -587 368z"/>
<path d="M8159 20936 c-117 -27 -239 -118 -290 -218 -43 -84 -37 -237 13 -310
10 -14 18 -29 18 -33 0 -17 71 -75 122 -99 74 -34 91 -59 84 -122 -3 -27 -8
-125 -11 -219 -2 -93 -9 -244 -15 -335 -5 -91 -12 -362 -15 -602 -4 -349 -2
-440 8 -450 7 -7 16 -21 20 -31 3 -9 18 -22 32 -27 14 -5 58 -25 98 -44 40
-19 90 -40 112 -47 22 -7 48 -20 59 -29 10 -8 20 -14 22 -12 3 2 34 -11 69
-27 36 -17 69 -31 74 -31 5 0 14 -6 20 -14 6 -7 32 -19 56 -26 70 -20 100 -60
115 -158 7 -44 9 -85 6 -91 -4 -5 -8 -115 -11 -243 -5 -295 -12 -280 122 -249
54 12 102 26 106 30 9 9 16 796 8 810 -9 13 -100 81 -109 81 -5 0 -37 14 -72
32 -35 17 -82 39 -104 48 -90 37 -134 57 -240 111 -146 73 -147 75 -140 258 2
75 7 172 9 216 6 96 12 297 20 705 6 325 11 427 21 475 7 33 60 99 99 125 34
22 82 100 96 156 13 49 6 161 -11 178 -6 6 -10 16 -10 24 0 8 -16 36 -35 62
-71 96 -207 138 -346 106z"/>
<path d="M15105 20686 c-119 -43 -168 -69 -242 -128 -73 -58 -129 -132 -156
-208 -55 -157 4 -365 139 -489 l67 -61 -7 -237 c-4 -131 -7 -296 -7 -368 -1
-248 -21 -370 -72 -432 -7 -8 -109 -112 -228 -231 -119 -119 -251 -257 -294
-307 -43 -49 -120 -133 -172 -185 -401 -410 -533 -552 -578 -620 -31 -45 -35
-58 -26 -77 6 -13 16 -23 22 -23 7 0 27 -12 46 -26 18 -14 53 -34 77 -45 51
-22 87 -15 107 23 12 22 106 132 183 213 21 22 77 83 124 135 76 84 157 170
272 289 19 20 109 115 199 211 193 205 472 481 518 513 18 12 39 36 47 52 20
40 36 200 36 365 0 263 8 681 13 687 3 3 50 20 104 38 103 35 206 85 236 116
10 11 24 19 32 19 7 0 24 15 36 33 13 17 38 49 56 70 88 99 120 261 76 387
-27 79 -81 180 -96 180 -7 0 -23 13 -35 30 -13 16 -38 36 -57 44 -19 8 -35 20
-35 27 0 7 -2 10 -5 7 -3 -3 -33 3 -66 13 -97 30 -204 25 -314 -15z"/>
<path d="M13655 20691 c-33 -9 -101 -38 -150 -64 -94 -48 -173 -122 -204 -192
-32 -71 -39 -137 -21 -211 30 -125 71 -180 192 -260 30 -20 60 -44 66 -55 9
-14 10 -178 2 -692 -9 -637 -16 -778 -40 -842 -6 -15 -98 -116 -205 -224 -107
-108 -207 -212 -222 -231 -16 -19 -45 -53 -65 -76 -21 -23 -38 -45 -38 -49 0
-4 -16 -22 -35 -41 -19 -18 -35 -41 -35 -51 1 -28 110 -95 202 -123 29 -9 42
1 67 52 7 14 25 40 40 57 14 17 44 54 66 82 53 66 80 95 280 299 94 96 182
189 197 207 33 42 36 75 43 548 3 193 7 373 10 400 2 28 6 196 10 374 4 244 9
332 20 357 8 19 18 34 22 34 10 0 100 66 169 125 40 35 56 57 74 107 26 70 32
200 12 220 -7 7 -12 22 -12 34 0 63 -100 171 -190 205 -72 27 -182 32 -255 10z"/>
<path d="M6565 20429 c-215 -79 -390 -262 -409 -429 -8 -67 20 -186 61 -267
69 -138 216 -213 415 -213 54 0 58 -2 64 -26 6 -25 -2 -774 -11 -914 -10 -188
-18 -439 -20 -730 -3 -263 -1 -328 10 -340 7 -8 14 -18 14 -23 1 -19 19 -35
61 -51 25 -10 65 -30 90 -45 25 -16 86 -50 135 -76 50 -27 125 -70 167 -97 70
-43 99 -65 159 -120 10 -10 24 -18 29 -18 6 0 10 -4 10 -10 0 -5 12 -16 28
-24 15 -8 49 -36 77 -61 27 -25 59 -45 71 -45 31 0 86 25 108 49 11 12 27 21
36 21 20 0 50 31 50 51 0 8 5 20 11 26 11 11 -22 43 -115 108 -32 22 -83 59
-114 82 -31 23 -61 43 -65 43 -5 0 -21 9 -36 19 -15 11 -54 34 -86 52 -33 18
-73 43 -88 56 -16 12 -34 23 -41 23 -7 0 -34 16 -59 35 -25 19 -50 35 -56 35
-5 0 -29 18 -52 40 -23 22 -47 41 -52 43 -26 8 -38 437 -24 892 3 132 9 420
12 640 3 220 8 420 12 445 5 36 16 55 54 95 86 90 114 141 140 253 26 113 19
161 -42 285 -91 185 -334 272 -544 196z"/>
<path d="M10285 20000 c-22 -10 -50 -29 -61 -42 -42 -44 -65 -215 -79 -573 -6
-161 -13 -301 -21 -395 -10 -133 -14 -271 -19 -573 -2 -171 -7 -329 -9 -352
-3 -22 -8 -112 -11 -200 -3 -88 -8 -187 -10 -220 -10 -116 -13 -529 -4 -552 5
-13 16 -23 25 -23 20 0 146 29 199 45 38 13 40 15 38 52 -5 133 -5 584 0 663
10 146 16 299 22 605 7 317 23 785 29 830 2 17 7 98 11 180 8 182 31 345 56
402 11 24 21 63 22 88 2 38 0 45 -16 45 -10 0 -16 4 -13 9 8 12 -48 31 -88 31
-17 -1 -49 -9 -71 -20z"/>
<path d="M10773 19487 c-23 -5 -44 -16 -47 -24 -6 -16 -14 -249 -21 -618 -2
-143 -9 -341 -14 -440 -28 -518 -41 -1127 -26 -1215 5 -28 13 -41 28 -46 31
-10 200 -5 211 6 5 5 11 123 12 262 1 139 5 352 8 473 3 121 9 333 12 470 4
138 9 315 13 395 13 269 13 720 0 736 -13 16 -110 17 -176 1z"/>
<path d="M17595 18939 c-49 -16 -106 -37 -125 -47 -80 -39 -194 -140 -241
-213 -35 -55 -62 -177 -48 -218 5 -14 8 -37 7 -51 -2 -14 1 -51 6 -82 8 -56 8
-58 -30 -105 -21 -26 -430 -440 -908 -920 -479 -479 -909 -911 -956 -960 -47
-48 -130 -128 -184 -178 l-98 -90 13 -30 c15 -35 123 -142 158 -156 43 -17 51
-11 201 161 54 61 393 403 730 736 135 133 398 398 585 589 187 191 346 353
353 359 41 33 215 214 267 275 57 68 61 71 96 67 21 -3 47 -9 58 -15 12 -6 30
-16 42 -22 14 -7 19 -7 15 0 -4 6 8 9 33 8 22 -1 43 -7 45 -13 4 -10 16 -9 55
2 28 8 73 20 99 28 247 69 421 275 424 500 2 97 -33 176 -110 252 -60 58 -173
130 -186 117 -3 -3 -11 -1 -18 4 -7 6 -47 14 -88 18 -41 3 -82 8 -90 10 -8 3
-55 -9 -105 -26z"/>
<path d="M15935 18776 c-118 -40 -158 -62 -206 -112 -66 -70 -95 -112 -113
-168 -9 -26 -21 -57 -27 -67 -21 -40 45 -206 125 -314 62 -84 101 -181 91
-227 -16 -75 -103 -178 -420 -493 -111 -110 -209 -212 -219 -228 -10 -15 -24
-27 -31 -27 -7 0 -15 -4 -17 -10 -3 -9 -193 -211 -350 -372 -43 -44 -78 -85
-78 -92 0 -7 -16 -28 -35 -47 -20 -19 -35 -44 -35 -57 0 -33 26 -80 50 -87 11
-3 38 -22 61 -41 60 -50 101 -39 155 40 10 16 24 35 29 44 15 21 39 47 275
293 396 411 494 512 682 703 148 149 189 196 194 222 3 19 4 86 2 149 l-5 115
55 50 c30 28 60 50 66 50 19 0 151 145 174 193 37 74 48 175 28 239 -29 94
-47 122 -102 168 -31 25 -62 51 -70 59 -20 18 -116 41 -169 40 -22 0 -71 -10
-110 -23z"/>
<path d="M5443 18670 c-81 -22 -209 -77 -253 -108 -53 -38 -129 -113 -155
-152 -41 -65 -69 -159 -68 -235 1 -102 48 -234 105 -293 91 -92 230 -146 376
-143 130 2 123 16 117 -222 -2 -111 -9 -283 -16 -383 -14 -224 -7 -543 12
-554 10 -7 10 -12 -1 -25 -11 -14 -11 -18 -1 -25 8 -4 11 -12 7 -18 -3 -6 1
-18 10 -26 8 -9 13 -16 9 -16 -25 0 62 -53 90 -54 6 -1 19 -9 30 -19 10 -10
42 -29 70 -43 90 -45 179 -94 207 -114 15 -11 30 -20 34 -20 4 0 22 -11 40
-25 18 -14 35 -25 38 -25 7 0 84 -51 175 -116 76 -54 100 -53 133 6 13 22 30
40 38 40 9 0 33 23 53 50 42 56 40 77 -10 103 -87 44 -189 100 -198 107 -6 5
-40 23 -75 41 -36 17 -73 38 -82 46 -10 9 -25 12 -37 8 -13 -4 -21 -2 -21 5 0
6 -8 13 -17 17 -10 3 -27 14 -38 25 -21 20 -125 84 -136 83 -14 0 -60 65 -65
94 -4 17 -11 34 -15 37 -15 9 -10 24 6 18 8 -4 15 -1 15 5 0 6 -4 11 -9 11
-10 0 -13 53 -13 243 -1 93 -4 137 -12 137 -7 0 -7 3 1 8 13 8 20 132 9 150
-4 7 -3 12 3 12 10 0 7 229 -4 280 -3 14 -8 36 -11 50 -2 14 -7 43 -9 64 -3
21 -12 50 -21 64 -30 46 -6 101 87 192 39 38 121 184 130 232 20 105 3 230
-38 279 -7 9 -11 18 -8 21 11 11 -130 138 -165 149 -19 6 -48 16 -65 24 -56
24 -90 31 -115 25 -14 -4 -36 -3 -50 0 -14 4 -52 0 -87 -10z"/>
<path d="M7406 18645 c-11 -8 -26 -15 -33 -15 -7 0 -36 -22 -64 -50 -28 -27
-48 -50 -44 -50 4 0 3 -6 -3 -12 -12 -16 -8 -103 6 -121 5 -6 13 -26 16 -43 6
-25 17 -36 59 -57 29 -14 75 -30 102 -37 58 -13 143 -59 199 -107 22 -18 44
-33 50 -33 6 -1 31 -21 56 -45 25 -25 49 -45 53 -45 4 0 13 -5 20 -10 46 -39
66 -53 128 -91 81 -49 145 -117 158 -168 5 -20 10 -119 11 -221 3 -262 1 -244
29 -248 24 -4 121 27 178 56 24 12 35 26 39 50 8 40 -2 423 -12 471 -5 23 -25
52 -63 88 -79 76 -90 85 -143 119 -27 16 -48 32 -48 36 0 4 -15 15 -32 24
-106 55 -268 198 -490 431 -53 57 -109 93 -140 93 -7 0 -22 -7 -32 -15z"/>
<path d="M15245 18295 c-17 -7 -85 -71 -150 -141 -66 -70 -193 -202 -281 -293
-89 -91 -197 -203 -240 -248 -44 -45 -154 -160 -247 -255 -92 -96 -175 -185
-184 -199 -10 -13 -30 -37 -46 -54 -15 -16 -35 -43 -43 -59 -15 -27 -14 -29
13 -56 15 -15 48 -37 73 -50 25 -12 52 -29 62 -37 9 -8 30 -13 50 -11 25 2 37
10 49 33 17 33 88 112 260 290 64 66 136 141 160 167 258 279 467 498 480 503
9 3 27 21 40 40 13 19 29 35 36 35 6 0 23 15 38 33 14 17 39 47 56 65 46 52
64 94 60 144 -1 20 -116 108 -139 107 -10 0 -31 -7 -47 -14z"/>
<path d="M3970 17632 c-92 -33 -142 -62 -198 -116 -141 -133 -181 -312 -104
-468 26 -53 45 -76 98 -117 56 -43 78 -54 97 -50 1 0 19 -7 39 -15 20 -9 43
-13 50 -11 8 3 31 -1 51 -10 20 -8 47 -15 61 -15 14 0 30 -10 40 -25 9 -13 22
-22 29 -19 7 2 23 -6 34 -18 12 -13 28 -28 35 -34 7 -6 19 -21 27 -32 8 -12
18 -19 23 -16 4 3 8 1 8 -4 0 -14 52 -72 65 -72 5 0 27 -20 49 -45 21 -25 45
-45 52 -45 8 0 14 -4 14 -9 0 -9 142 -136 305 -271 121 -101 113 -95 175 -153
61 -58 197 -158 275 -202 28 -16 52 -32 55 -35 3 -3 21 -12 40 -20 19 -7 46
-21 60 -30 14 -10 43 -24 65 -31 81 -28 345 -189 345 -210 0 -19 -116 -210
-203 -334 -66 -96 -97 -145 -97 -158 0 -7 -8 -24 -17 -37 -10 -14 -25 -38 -33
-55 -27 -51 -45 -80 -53 -86 -10 -7 -30 -40 -51 -84 -8 -17 -23 -38 -34 -48
-18 -16 -23 -17 -53 -4 -19 8 -45 27 -59 42 -14 15 -38 34 -55 42 -16 9 -50
33 -75 53 -59 47 -145 115 -210 165 -70 53 -167 133 -210 171 -19 18 -116 98
-215 178 -99 81 -259 211 -355 290 -96 79 -213 175 -260 212 -47 38 -117 95
-156 129 -39 33 -120 101 -180 152 -60 50 -140 121 -178 157 -37 36 -72 66
-76 66 -12 0 -70 91 -70 109 0 20 48 179 61 204 10 17 13 34 26 114 6 38 -27
156 -60 209 -57 94 -208 193 -317 207 -132 16 -296 -33 -423 -127 -182 -134
-261 -303 -223 -470 27 -115 93 -219 164 -260 11 -6 42 -23 68 -38 25 -16 54
-28 64 -28 9 0 20 -3 24 -7 23 -24 174 -18 305 12 73 16 75 16 102 -4 16 -12
33 -21 39 -21 5 0 10 -7 10 -15 0 -9 7 -18 15 -21 8 -4 15 -12 15 -19 0 -7 14
-16 30 -20 17 -4 30 -11 30 -17 0 -10 25 -38 34 -38 3 0 15 -8 25 -17 10 -10
40 -36 65 -58 26 -22 69 -61 96 -87 28 -26 58 -49 69 -53 10 -3 21 -14 24 -25
3 -11 13 -23 24 -27 19 -8 20 -8 73 -53 19 -16 41 -30 48 -30 6 0 11 -4 10 -9
-2 -5 42 -45 97 -90 55 -45 110 -91 121 -102 12 -10 24 -19 27 -19 6 0 36 -24
106 -85 25 -23 64 -54 86 -70 22 -16 45 -35 50 -42 6 -7 26 -24 45 -38 19 -14
69 -56 110 -94 110 -100 162 -145 187 -161 77 -52 360 -275 490 -387 34 -29
66 -53 72 -53 6 0 11 -5 11 -10 0 -6 8 -14 18 -17 9 -4 26 -16 37 -26 11 -11
38 -31 60 -45 22 -13 57 -40 77 -58 53 -47 83 -65 100 -59 11 4 130 228 162
305 3 8 14 26 24 40 9 14 26 41 37 59 11 19 28 41 38 50 9 8 17 19 17 23 0 5
12 27 27 51 14 23 36 58 48 77 41 65 94 145 135 200 22 30 45 65 52 78 6 12
15 22 19 22 5 0 27 26 51 58 23 31 48 62 55 67 7 6 23 24 35 41 13 17 52 63
88 103 36 40 68 81 72 91 12 31 -48 67 -79 47 -7 -4 -17 1 -25 11 -7 10 -26
25 -43 34 -16 8 -43 22 -60 31 -45 24 -170 82 -255 118 -152 64 -375 181 -430
226 -8 6 -51 38 -95 71 -44 32 -96 73 -115 91 -19 18 -52 47 -74 64 -61 50
-417 365 -463 411 -23 22 -56 53 -73 68 -41 36 -41 83 0 140 17 22 30 45 30
49 0 5 14 31 31 58 24 40 32 67 39 136 8 76 7 93 -11 137 -11 27 -41 75 -67
105 -104 120 -260 159 -412 105z m-1344 -648 c-5 -17 -3 -23 4 -19 5 3 10 0
10 -8 0 -8 -10 -17 -22 -21 -19 -5 -21 -8 -8 -16 20 -13 30 -12 30 3 0 6 12
20 25 30 24 17 25 17 25 -3 0 -14 7 -20 23 -21 12 0 16 -3 9 -6 -22 -9 -2 -23
24 -17 14 4 24 2 24 -5 0 -6 -6 -8 -13 -5 -7 2 -21 -4 -31 -15 -15 -16 -16
-26 -8 -48 7 -23 6 -33 -8 -50 -11 -14 -16 -32 -12 -49 4 -25 3 -26 -22 -22
-21 4 -26 2 -21 -10 3 -8 0 -21 -6 -28 -9 -11 -7 -14 10 -14 11 0 21 -4 21
-10 0 -16 -29 -11 -49 9 -12 12 -27 17 -45 14 -15 -3 -26 -1 -26 5 0 6 12 12
27 14 14 2 29 10 31 18 4 13 3 13 -11 2 -10 -8 -22 -10 -31 -5 -15 8 -16 10
-16 45 0 34 -10 14 -14 -28 -3 -29 -8 -38 -20 -36 -9 2 -16 -2 -16 -8 0 -5 7
-10 16 -10 23 0 11 -24 -14 -28 -18 -3 -22 2 -22 23 0 14 -6 28 -14 31 -8 3
-12 13 -9 25 3 10 0 19 -6 19 -6 0 -11 -8 -11 -17 -1 -16 -2 -16 -16 2 -11 14
-18 16 -21 8 -8 -22 -25 -14 -18 8 5 15 4 19 -4 15 -12 -8 -16 26 -3 38 4 4 8
17 8 29 4 63 53 132 85 122 12 -4 23 1 31 14 7 12 23 21 35 21 12 0 25 5 29
11 4 8 9 7 15 -2 8 -11 11 -11 20 4 15 25 22 21 15 -9z m294 7 c0 -5 -6 -14
-14 -20 -11 -9 -16 -9 -21 0 -4 6 -1 15 6 20 18 11 29 11 29 0z m-172 -123
c-2 -6 -10 -14 -16 -16 -7 -2 -10 2 -6 12 7 18 28 22 22 4z m40 -29 c-10 -6
-18 -17 -18 -24 0 -8 -4 -15 -10 -15 -5 0 -10 9 -10 20 0 11 5 20 10 20 6 0
10 10 10 22 0 21 1 22 18 5 16 -17 16 -19 0 -28z m15 -55 c-4 -12 -8 -13 -14
-3 -9 15 -2 32 11 24 5 -3 6 -13 3 -21z m-23 -26 c0 -11 -32 -10 -50 2 -13 9
-13 11 -1 19 14 9 51 -6 51 -21z m-383 -70 c-3 -8 -6 -5 -6 6 -1 11 2 17 5 13
3 -3 4 -12 1 -19z"/>
<path d="M2570 16940 c0 -5 5 -10 10 -10 6 0 10 5 10 10 0 6 -4 10 -10 10 -5
0 -10 -4 -10 -10z"/>
<path d="M2670 16814 c0 -8 5 -12 10 -9 6 3 10 10 10 16 0 5 -4 9 -10 9 -5 0
-10 -7 -10 -16z"/>
<path d="M2510 16735 c0 -8 5 -15 10 -15 6 0 10 7 10 15 0 8 -4 15 -10 15 -5
0 -10 -7 -10 -15z"/>
<path d="M18062 17484 c-29 -8 -66 -21 -83 -30 -44 -22 -222 -162 -233 -182
-5 -9 -21 -33 -36 -52 -14 -19 -32 -51 -39 -70 -7 -19 -17 -44 -21 -55 -19
-44 -18 -94 2 -176 l21 -85 -46 -60 c-25 -33 -283 -299 -574 -591 -290 -293
-574 -578 -630 -635 -56 -57 -174 -175 -262 -263 -116 -115 -161 -166 -161
-182 0 -32 27 -96 38 -89 5 3 18 -8 30 -23 35 -48 114 -76 148 -53 6 4 55 57
109 117 102 113 510 530 947 968 136 136 248 249 248 251 0 2 69 74 153 161
136 140 156 157 178 151 280 -82 342 -82 534 1 88 39 103 50 208 166 37 41
107 169 107 196 0 12 5 31 10 41 6 11 11 51 11 88 1 94 -45 208 -101 252 -22
17 -41 39 -45 49 -3 10 -28 28 -56 41 -28 13 -53 29 -57 35 -22 34 -302 54
-400 29z"/>
<path d="M11835 17463 c-3 -8 -5 -97 -5 -198 0 -210 -11 -190 115 -206 70 -9
210 -42 285 -68 14 -5 59 -19 100 -32 89 -27 200 -70 268 -104 28 -14 55 -25
62 -25 6 0 46 -18 88 -39 70 -35 118 -58 222 -105 19 -9 53 -27 75 -41 22 -14
47 -28 55 -32 8 -3 26 -14 40 -23 14 -10 57 -34 95 -55 182 -96 581 -409 750
-586 319 -334 490 -552 650 -824 48 -82 105 -179 126 -215 88 -150 270 -613
308 -785 7 -27 23 -98 36 -156 14 -59 25 -120 25 -136 0 -17 4 -43 9 -59 6
-16 19 -121 31 -234 37 -356 31 -802 -15 -1096 -16 -105 -102 -490 -144 -644
-19 -73 -53 -175 -71 -215 -4 -11 -17 -47 -28 -80 -44 -130 -66 -184 -137
-329 -41 -83 -94 -194 -120 -246 -25 -52 -56 -114 -70 -137 -52 -90 -260 -400
-318 -476 -81 -103 -103 -132 -156 -203 -56 -75 -56 -74 -143 -165 -40 -42
-85 -90 -99 -105 -14 -16 -122 -123 -240 -239 -194 -190 -373 -339 -561 -469
-256 -176 -385 -256 -588 -363 -52 -28 -120 -64 -150 -80 -79 -43 -200 -95
-405 -175 -399 -155 -486 -185 -665 -228 -47 -11 -116 -30 -155 -42 l-70 -23
-7 -265 c-3 -146 -9 -312 -12 -370 -8 -138 -15 -285 -21 -445 -3 -71 -7 -170
-10 -220 -8 -146 -14 -290 -20 -450 -3 -82 -8 -197 -10 -255 -11 -241 -15
-418 -17 -640 -1 -194 2 -241 15 -270 15 -36 95 -113 175 -170 98 -70 195
-168 217 -220 18 -39 20 -68 20 -250 0 -181 -3 -288 -21 -680 -2 -52 -4 -120
-4 -151 0 -31 -4 -69 -10 -84 -8 -22 -119 -176 -141 -195 -19 -18 -48 -84 -59
-138 -22 -106 -4 -200 63 -342 41 -87 120 -162 217 -209 67 -32 83 -35 160
-36 248 -1 435 102 550 302 65 112 85 215 59 307 -8 30 -8 41 2 47 9 5 10 11
3 21 -6 7 -19 36 -29 63 -23 63 -40 90 -88 140 l-39 40 7 270 c4 149 9 302 10
340 2 39 6 185 9 325 4 140 9 271 11 290 2 19 7 96 10 170 3 74 8 176 10 225
3 50 7 180 10 290 3 110 7 247 10 305 2 58 7 170 10 250 3 80 8 181 11 225 2
44 7 150 10 235 3 85 9 205 13 265 16 229 2 299 -78 375 -20 20 -46 47 -57 60
-49 58 -93 90 -122 90 -72 0 -211 -69 -212 -105 0 -31 67 -154 106 -194 19
-19 34 -39 34 -44 0 -4 9 -20 20 -35 36 -51 43 -166 26 -465 -4 -62 -9 -146
-11 -187 -2 -41 -7 -115 -10 -165 -3 -49 -7 -236 -10 -415 -5 -302 -8 -389
-20 -545 -7 -93 -14 -314 -21 -615 -3 -151 -8 -306 -9 -345 -2 -38 -4 -163 -4
-278 l-1 -207 -32 -21 c-35 -21 -100 -21 -121 0 -5 5 -13 50 -16 98 -6 93 3
473 14 608 14 153 11 467 -4 509 -15 43 -52 82 -150 154 -200 149 -237 186
-255 257 -11 42 -9 666 3 898 6 106 13 264 16 352 4 88 9 174 11 190 3 17 7
235 10 485 3 295 9 459 16 467 6 7 19 13 28 13 10 0 20 5 22 10 2 6 21 13 43
16 99 15 649 213 920 331 155 68 474 232 630 323 95 56 293 186 385 253 310
226 391 296 659 566 324 326 452 471 614 694 56 77 206 302 257 386 25 40 61
99 81 130 73 114 124 215 201 391 5 14 14 32 19 40 16 29 37 75 74 165 20 50
44 110 55 135 10 25 26 65 35 90 9 25 25 63 36 85 17 37 39 109 105 345 13 47
31 114 40 150 8 36 19 81 25 100 57 212 96 633 93 1005 -2 261 -4 296 -20 415
-5 30 -7 69 -5 87 1 17 -2 41 -8 52 -6 11 -12 44 -12 73 -1 29 -10 86 -20 127
-11 41 -19 88 -19 105 0 16 -11 71 -24 120 -14 50 -33 132 -44 181 -27 127
-191 574 -280 765 -66 142 -207 378 -316 530 -206 288 -409 513 -681 756 -118
105 -142 126 -225 188 -41 30 -79 59 -85 63 -21 17 -184 132 -260 184 -44 31
-125 82 -180 114 -55 32 -117 68 -137 81 -21 13 -40 24 -43 24 -3 0 -38 18
-78 41 -40 22 -99 52 -132 66 -33 13 -73 30 -90 38 -110 50 -195 85 -204 85
-6 0 -25 9 -43 20 -18 11 -41 20 -51 20 -9 0 -25 4 -35 10 -9 5 -78 30 -152
55 -74 24 -200 67 -280 94 -184 63 -327 94 -335 74z"/>
<path d="M6269 17355 c-51 -16 -96 -60 -130 -126 -36 -72 -26 -139 29 -178 17
-11 35 -21 41 -21 11 0 62 -23 142 -65 100 -51 468 -328 534 -401 40 -44 68
-43 124 4 25 21 57 45 71 52 79 41 46 107 -105 210 -60 41 -115 81 -218 157
-82 61 -233 198 -251 228 -11 17 -29 36 -40 41 -12 5 -30 26 -41 46 -16 30
-26 38 -47 38 -18 0 -28 5 -28 15 0 18 -20 18 -81 0z"/>
<path d="M8990 17160 c-36 -11 -310 -116 -410 -157 -190 -78 -651 -315 -800
-411 -276 -178 -475 -319 -660 -471 -198 -162 -735 -711 -886 -906 -292 -377
-528 -775 -669 -1130 -75 -189 -89 -227 -115 -315 -25 -87 -73 -239 -120 -380
-16 -48 -37 -143 -45 -205 -2 -11 -10 -51 -20 -90 -29 -125 -75 -377 -80 -445
-2 -25 -6 -67 -10 -95 -21 -164 -40 -216 -86 -236 -34 -13 -224 -8 -239 7 -11
11 -19 74 -20 157 0 33 -6 53 -20 67 -20 20 -28 20 -328 14 -169 -3 -597 -8
-952 -10 -354 -2 -650 -6 -657 -8 -9 -4 -13 -30 -13 -88 0 -96 18 -184 40
-195 8 -5 355 -9 770 -10 415 -1 990 -3 1278 -5 515 -3 523 -3 542 17 16 17
20 41 25 160 3 77 8 165 10 195 3 30 7 83 9 118 3 38 11 68 20 78 19 19 20 26
4 43 -11 10 -10 15 2 24 17 13 21 67 5 67 -6 0 -5 3 1 8 10 6 24 64 26 102 0
8 5 21 11 28 6 8 6 12 -2 12 -8 0 -7 6 3 16 19 18 21 44 4 44 -7 0 -5 5 4 13
9 6 24 48 33 92 9 44 24 99 31 121 8 23 16 50 18 60 3 11 9 32 15 47 6 15 10
31 9 35 -3 11 61 211 82 258 11 23 22 54 26 68 3 14 10 29 15 32 5 2 13 24 19
47 10 38 156 345 170 357 4 3 12 21 20 40 7 19 19 42 25 50 7 8 15 27 19 42 3
15 15 35 25 45 10 10 22 33 26 50 3 18 12 36 18 40 7 5 19 22 27 38 8 17 20
33 27 38 6 4 15 21 18 38 4 19 15 33 26 36 13 4 19 14 19 34 0 17 7 32 19 38
10 6 21 24 24 40 7 33 27 60 112 152 8 9 15 21 15 27 0 6 11 19 25 28 14 9 25
25 25 35 0 11 7 19 15 19 9 0 21 12 28 28 6 15 20 36 30 47 10 11 16 28 13 39
-3 13 -2 16 6 8 8 -8 15 -7 24 3 16 16 19 29 4 20 -5 -3 -10 1 -10 9 0 9 9 16
20 16 11 0 20 5 20 11 0 5 5 7 10 4 6 -4 13 7 16 24 5 22 12 31 26 31 10 0 21
7 24 15 4 8 13 15 20 15 8 0 17 6 20 14 3 8 23 27 45 42 21 14 39 33 39 40 0
8 9 14 20 14 11 0 20 4 20 10 0 5 25 36 55 67 30 32 55 61 55 66 0 4 4 6 9 2
6 -3 15 4 21 16 15 27 97 108 104 102 3 -3 10 5 16 18 6 13 29 37 51 53 21 17
39 33 39 38 0 4 7 8 15 8 8 0 19 9 25 20 6 11 17 20 24 20 8 0 16 7 20 15 3 8
15 15 26 15 11 0 20 7 20 15 0 8 6 15 14 15 7 0 19 7 26 15 7 9 27 22 45 31
18 8 48 28 66 45 18 16 39 29 46 29 7 0 13 5 13 10 0 6 11 15 25 20 14 5 25
14 25 20 0 5 4 10 10 10 5 0 18 6 27 14 57 46 200 146 248 172 17 9 46 30 66
45 20 16 41 29 47 29 5 0 15 6 21 14 7 8 25 18 41 21 16 3 31 13 34 21 3 8 13
14 22 14 9 0 28 8 42 18 50 32 67 42 82 48 26 10 55 24 70 34 33 21 310 150
322 150 8 0 22 6 33 14 11 7 36 17 55 21 19 4 41 11 50 16 13 7 62 25 213 81
27 10 39 34 39 80 1 53 -21 241 -29 248 -4 4 -19 4 -33 0z m-3430 -4184 c0 -3
-4 -8 -10 -11 -5 -3 -10 -1 -10 4 0 6 5 11 10 11 6 0 10 -2 10 -4z m0 -80 c0
-4 -9 -1 -19 6 -11 7 -17 16 -15 20 5 8 34 -15 34 -26z"/>
<path d="M16855 16813 c-16 -9 -34 -22 -38 -30 -5 -7 -25 -30 -45 -51 -20 -21
-77 -82 -127 -135 -49 -54 -193 -203 -320 -332 -126 -128 -306 -313 -400 -411
-93 -98 -230 -237 -302 -309 -73 -72 -133 -136 -133 -142 0 -33 108 -178 139
-186 24 -6 52 7 84 39 29 31 752 762 972 984 74 74 139 140 145 147 33 33 83
83 153 152 42 41 80 83 83 93 8 25 -33 111 -69 145 -27 26 -85 54 -106 53 -3
-1 -19 -8 -36 -17z"/>
<path d="M10455 16760 c-55 -5 -145 -13 -200 -20 -55 -7 -111 -12 -124 -11
-13 1 -42 -4 -65 -10 -22 -6 -72 -15 -111 -19 -38 -4 -104 -17 -145 -29 -41
-11 -88 -21 -103 -21 -16 0 -75 -13 -130 -30 -56 -16 -144 -39 -196 -50 -140
-30 -507 -176 -746 -296 -244 -123 -318 -166 -524 -303 -264 -176 -382 -266
-576 -437 -323 -287 -551 -529 -757 -804 -98 -131 -238 -339 -238 -354 0 -5
-6 -17 -14 -25 -7 -9 -24 -36 -37 -61 -13 -25 -29 -52 -35 -60 -19 -25 -174
-341 -174 -355 0 -2 -10 -25 -22 -52 -37 -83 -78 -198 -108 -303 -7 -25 -20
-67 -30 -95 -24 -68 -67 -230 -75 -285 -4 -25 -15 -76 -25 -115 -10 -38 -21
-88 -24 -110 -3 -22 -14 -110 -25 -195 -44 -342 -53 -591 -31 -880 17 -234 61
-483 125 -710 14 -52 35 -124 45 -160 120 -428 517 -1016 981 -1451 135 -127
187 -171 318 -267 91 -68 366 -252 375 -252 3 0 30 -15 59 -34 121 -77 344
-184 527 -251 19 -7 60 -22 90 -33 84 -30 157 -52 177 -52 10 0 27 -6 38 -14
11 -7 36 -16 55 -18 19 -3 78 -17 130 -32 199 -55 340 -81 605 -111 168 -19
571 -24 745 -10 52 4 115 9 140 11 85 6 175 15 205 19 17 3 66 10 110 16 44 5
105 16 135 23 30 8 75 17 100 20 25 4 100 22 166 41 67 19 132 35 145 35 36 0
288 87 519 179 213 85 467 205 605 287 184 108 331 200 384 238 31 23 74 53
95 66 35 21 183 134 196 149 3 4 30 26 60 51 214 173 539 499 721 725 255 316
412 556 567 870 46 94 97 204 113 245 17 41 36 89 43 105 30 67 112 302 136
390 85 311 133 588 147 854 12 200 8 585 -6 671 -27 175 -54 313 -83 430 -17
69 -35 145 -39 170 -36 183 -206 583 -348 818 -86 143 -92 152 -160 247 -248
346 -528 633 -831 856 -63 46 -127 92 -141 101 -14 9 -33 23 -41 31 -8 8 -30
22 -48 32 -19 10 -42 23 -50 30 -26 22 -290 164 -440 237 -190 92 -487 194
-730 252 -36 8 -113 27 -171 41 -59 14 -170 32 -248 40 -78 8 -152 17 -164 20
-76 17 -670 27 -842 15z m375 -1600 c100 -12 326 -67 425 -104 78 -29 263
-120 339 -167 192 -118 406 -348 535 -574 144 -251 221 -540 221 -827 0 -110
-28 -324 -55 -423 -9 -33 -20 -73 -25 -90 -12 -47 -40 -127 -57 -165 -88 -194
-168 -335 -266 -465 -96 -127 -334 -357 -490 -474 -77 -57 -141 -111 -144
-119 -4 -8 -1 -22 6 -31 6 -9 17 -27 24 -41 16 -34 44 -66 172 -200 106 -110
252 -268 366 -395 30 -33 88 -96 129 -140 41 -44 107 -116 145 -160 39 -44
126 -143 196 -220 194 -217 277 -319 310 -381 26 -51 28 -59 15 -72 -12 -12
-18 -13 -30 -3 -10 8 -27 10 -46 6 -20 -4 -37 -2 -47 7 -14 11 -16 11 -11 -2
5 -13 -5 -15 -61 -12 -119 4 -384 3 -466 -2 -44 -3 -215 -8 -379 -11 -165 -3
-302 -7 -305 -9 -7 -4 -118 -7 -303 -9 -69 -1 -125 -4 -123 -7 2 -3 -65 -6
-148 -7 -84 -1 -234 -2 -334 -4 -101 -1 -183 -6 -183 -10 0 -5 -12 -4 -26 2
-15 5 -34 7 -44 4 -22 -7 -748 -24 -1145 -26 -66 -1 -123 -3 -126 -5 -4 -2
-113 -5 -243 -6 -131 -1 -239 -5 -242 -9 -3 -5 -10 -6 -17 -3 -14 5 -122 11
-219 13 -53 1 -68 4 -68 16 0 14 254 307 390 450 37 39 96 102 130 140 35 39
76 81 91 95 14 14 84 90 155 170 71 80 140 156 154 170 14 14 63 68 110 120
47 51 102 110 123 130 20 19 37 40 37 47 0 6 6 13 14 16 16 6 126 136 126 149
0 4 -7 8 -16 8 -8 0 -39 15 -67 33 -29 18 -90 52 -135 76 -134 69 -239 147
-353 260 -104 105 -189 210 -247 306 -85 143 -172 333 -172 377 0 10 -4 26 -9
36 -21 37 -61 231 -66 317 -3 50 -8 114 -11 143 -3 28 -2 52 3 52 4 0 8 44 8
97 0 61 7 126 19 173 10 41 25 111 33 154 8 44 21 89 29 100 8 11 14 29 14 38
0 10 4 26 9 36 14 25 24 56 23 64 -1 4 7 22 18 40 11 18 20 45 20 59 0 14 12
44 28 65 15 21 36 57 47 79 26 51 100 163 130 195 13 14 25 36 27 50 2 16 9
24 18 23 9 -2 22 7 30 20 51 78 396 391 485 441 17 9 59 35 95 57 90 57 165
96 310 163 136 64 164 73 318 111 56 14 114 30 127 35 28 11 162 30 275 39 98
8 293 4 400 -9z"/>
<path d="M18230 15971 c-125 -41 -229 -92 -282 -140 -95 -85 -156 -207 -159
-321 -2 -62 17 -185 33 -214 9 -16 5 -23 -18 -40 -50 -35 -204 -184 -462 -449
-141 -144 -171 -161 -312 -171 -47 -3 -305 -6 -573 -7 -621 -1 -627 -2 -635
-116 -5 -79 23 -154 64 -166 60 -17 1189 -12 1326 6 48 7 99 38 131 81 30 39
255 265 488 490 90 87 163 162 162 167 -2 5 2 9 7 9 6 0 10 -4 10 -8 0 -5 15
-9 33 -9 17 0 61 -8 97 -16 36 -9 82 -16 102 -17 122 -1 324 81 413 166 126
121 179 262 157 415 -10 63 -43 154 -60 161 -4 1 -18 20 -31 41 -12 20 -27 37
-31 37 -5 0 -24 13 -43 29 -54 48 -203 97 -267 88 -22 -3 -43 -1 -46 4 -7 12
-7 12 -104 -20z"/>
<path d="M2248 15975 c-3 -3 -37 -7 -76 -9 -53 -3 -88 -12 -134 -33 -83 -39
-189 -114 -222 -157 -14 -19 -35 -38 -46 -41 -11 -3 -20 -13 -20 -21 0 -9 -11
-30 -24 -47 -67 -90 -76 -289 -20 -413 25 -55 84 -131 114 -149 78 -43 103
-55 120 -55 11 0 20 -4 20 -10 0 -5 8 -10 18 -10 10 0 23 -5 30 -12 7 -7 49
-11 119 -10 88 0 122 5 182 26 41 14 83 33 93 43 19 17 31 25 99 62 24 13 52
35 63 48 18 23 23 25 75 18 31 -3 70 -8 88 -9 18 -2 39 -9 47 -15 8 -7 20 -10
25 -7 5 4 13 1 16 -5 4 -5 13 -8 20 -5 7 2 21 -2 32 -9 10 -8 26 -15 35 -15 9
0 23 -7 31 -15 8 -8 27 -13 43 -11 39 5 74 -10 74 -30 0 -12 6 -15 27 -11 15
3 40 -1 56 -9 15 -8 32 -12 37 -9 6 3 10 2 10 -3 0 -5 12 -8 28 -6 15 2 21 1
13 -2 -19 -9 88 -55 111 -48 13 4 16 1 12 -11 -5 -11 -2 -16 7 -14 8 2 23 0
34 -4 11 -3 31 -8 45 -11 14 -2 34 -8 44 -12 15 -6 17 -4 11 7 -8 12 -6 12 8
1 9 -8 21 -10 28 -6 7 4 10 2 7 -7 -5 -16 41 -39 77 -39 12 0 28 -7 35 -15 14
-17 37 -20 42 -4 2 6 15 2 30 -10 15 -12 30 -20 35 -19 14 4 53 -13 53 -23 0
-6 14 -15 31 -21 25 -9 30 -14 25 -34 -5 -17 -2 -24 7 -24 10 0 15 -15 16 -52
0 -45 4 -74 11 -98 1 -3 5 4 10 15 7 17 9 16 9 -10 1 -41 86 -118 144 -131 17
-3 38 -15 46 -25 23 -26 151 -81 151 -65 0 15 -48 66 -61 66 -5 0 -9 5 -9 12
0 6 -6 19 -14 27 -25 29 -29 75 -8 102 43 55 95 174 96 219 1 25 4 50 8 55 8
13 -6 44 -34 77 -22 25 -86 59 -138 72 -14 4 -50 14 -80 22 -30 9 -62 17 -70
19 -46 9 -106 28 -115 35 -6 5 -23 7 -37 6 -15 -2 -25 0 -23 5 6 8 -40 24 -98
35 -21 3 -41 13 -44 21 -5 12 -7 12 -14 1 -7 -11 -12 -11 -30 1 -12 7 -32 14
-43 16 -12 2 -35 8 -53 13 -17 6 -34 8 -36 5 -3 -2 -8 5 -12 17 -4 13 -12 19
-21 16 -7 -3 -16 0 -20 5 -3 6 -15 9 -25 6 -11 -3 -17 -1 -13 4 4 8 -37 13
-52 7 -3 -2 -10 5 -15 15 -6 10 -22 17 -40 17 -21 0 -28 4 -23 12 5 7 2 9 -8
5 -9 -3 -28 1 -42 9 -15 7 -37 15 -49 17 -12 2 -35 10 -52 17 -16 7 -47 13
-67 14 -21 0 -40 6 -42 13 -3 7 -14 13 -25 13 -11 0 -23 5 -26 10 -3 6 -13 10
-21 10 -13 0 -79 28 -143 59 -8 4 -24 20 -35 35 -17 22 -18 29 -7 35 18 11 9
58 -31 164 -26 68 -41 91 -87 135 -69 65 -120 96 -197 121 -65 21 -138 34
-146 26z m-213 -271 c11 -12 26 -15 50 -11 18 3 36 2 40 -1 4 -4 17 -7 28 -7
18 0 22 -5 20 -27 -2 -24 2 -28 25 -28 21 0 28 -5 28 -19 0 -16 -6 -18 -33
-14 -24 4 -33 2 -35 -8 -4 -43 -3 -69 5 -69 5 0 6 11 3 24 -4 17 -1 26 11 30
20 8 22 6 25 -32 1 -18 6 -32 10 -32 15 0 8 -29 -9 -40 -14 -9 -15 -12 -4 -17
7 -3 21 -14 29 -24 9 -11 26 -19 37 -20 14 0 12 -3 -9 -9 -35 -11 -46 -6 -46
21 0 11 -7 20 -17 21 -33 2 -38 4 -50 11 -9 6 -13 1 -13 -13 0 -16 5 -20 15
-16 9 3 15 0 15 -9 0 -8 -9 -15 -20 -15 -11 0 -23 -6 -26 -14 -6 -15 -54 -19
-54 -5 0 5 5 9 11 9 5 0 7 5 4 10 -8 13 -45 13 -45 1 0 -6 5 -13 10 -16 12 -7
4 -25 -11 -25 -5 0 -9 6 -9 14 0 8 -7 16 -15 20 -8 3 -15 15 -15 26 0 11 -4
20 -10 20 -5 0 -10 -4 -10 -9 0 -5 -11 -11 -25 -13 -14 -3 -25 -1 -25 3 0 5
-6 9 -13 9 -8 0 -14 12 -14 28 -1 15 -3 46 -6 70 -4 38 -2 45 18 54 13 6 26
19 28 30 4 15 11 18 26 13 12 -3 21 -2 21 3 0 6 -5 12 -12 14 -19 7 2 28 28
28 13 0 24 5 24 10 0 6 -7 10 -15 10 -16 0 -20 12 -8 23 10 11 20 8 38 -9z
m222 -171 c-8 -8 -21 -13 -28 -11 -8 3 -5 11 12 26 26 25 42 10 16 -15z m23
-83 c0 -11 -4 -20 -9 -20 -7 0 -8 17 -2 38 4 10 11 -2 11 -18z m-96 -45 c-4
-8 -8 -15 -10 -15 -2 0 -4 7 -4 15 0 8 4 15 10 15 5 0 7 -7 4 -15z m186 11 c0
-11 -19 -15 -25 -6 -3 5 1 10 9 10 9 0 16 -2 16 -4z m-380 -47 c0 -5 -4 -9
-10 -9 -5 0 -10 7 -10 16 0 8 5 12 10 9 6 -3 10 -10 10 -16z m980 -172 c0 -5
-4 -5 -10 -2 -5 3 -10 14 -10 23 0 15 2 15 10 2 5 -8 10 -19 10 -23z"/>
<path d="M2050 15670 c0 -5 5 -10 10 -10 6 0 10 5 10 10 0 6 -4 10 -10 10 -5
0 -10 -4 -10 -10z"/>
<path d="M2080 15670 c0 -5 7 -10 15 -10 8 0 15 5 15 10 0 6 -7 10 -15 10 -8
0 -15 -4 -15 -10z"/>
<path d="M2040 15629 c0 -5 5 -7 10 -4 6 3 10 8 10 11 0 2 -4 4 -10 4 -5 0
-10 -5 -10 -11z"/>
<path d="M2128 15613 c6 -2 18 -2 25 0 6 3 1 5 -13 5 -14 0 -19 -2 -12 -5z"/>
<path d="M2070 15601 c0 -5 5 -13 10 -16 6 -3 10 -2 10 4 0 5 -4 13 -10 16 -5
3 -10 2 -10 -4z"/>
<path d="M2160 15500 c0 -5 5 -10 11 -10 5 0 7 5 4 10 -3 6 -8 10 -11 10 -2 0
-4 -4 -4 -10z"/>
<path d="M2005 15430 c-3 -5 -1 -10 4 -10 6 0 11 5 11 10 0 6 -2 10 -4 10 -3
0 -8 -4 -11 -10z"/>
<path d="M19685 14950 c-49 -17 -115 -45 -147 -62 -68 -36 -168 -128 -208
-192 -16 -25 -42 -52 -58 -60 -34 -18 -155 -24 -607 -31 -450 -8 -476 -10
-497 -39 -10 -13 -36 -43 -58 -67 -23 -24 -56 -60 -74 -79 -18 -19 -52 -57
-76 -85 -140 -161 -272 -281 -357 -324 -40 -20 -57 -21 -330 -21 -158 0 -304
2 -323 5 -19 2 -247 6 -507 7 -367 2 -475 0 -484 -10 -16 -15 -16 -62 0 -176
14 -97 22 -111 67 -119 16 -3 376 -9 801 -12 567 -5 786 -4 827 5 54 11 61 17
213 169 87 86 178 181 203 210 45 54 184 196 212 218 33 25 103 33 314 38 179
4 387 11 544 19 14 1 31 5 38 9 6 5 12 4 12 -2 0 -6 22 -7 56 -4 50 5 56 4 61
-16 3 -11 9 -21 14 -21 5 0 17 -17 28 -38 39 -77 137 -133 290 -167 90 -19
167 -13 259 22 76 28 123 55 157 89 13 13 28 24 33 24 14 0 90 105 117 162 33
69 50 191 35 248 -48 180 -205 305 -405 325 -50 4 -74 0 -150 -25z"/>
<path d="M2458 14730 c-112 -38 -191 -78 -255 -129 -119 -94 -203 -253 -203
-386 0 -101 34 -212 86 -282 31 -41 128 -116 179 -138 60 -26 174 -46 225 -39
25 3 60 7 79 10 72 9 178 56 227 98 27 24 58 46 70 50 11 3 30 19 42 35 12 16
35 32 52 36 31 7 100 -10 100 -25 0 -4 27 -13 60 -21 33 -7 60 -18 60 -24 0
-6 21 -17 48 -24 26 -8 49 -17 52 -20 14 -16 80 -61 80 -54 0 4 4 4 8 -2 8
-11 45 -34 107 -65 42 -21 61 -32 110 -65 17 -12 43 -26 58 -33 15 -6 33 -17
40 -22 48 -41 63 -50 102 -61 25 -7 45 -16 45 -20 0 -18 184 -31 494 -36 446
-7 573 -6 586 2 15 9 36 63 54 141 8 39 22 86 31 107 15 36 20 89 10 99 -3 3
-24 -1 -47 -9 -24 -8 -54 -11 -71 -7 -20 4 -27 3 -23 -4 10 -16 -29 -33 -103
-44 -84 -13 -779 -19 -787 -7 -3 5 -17 9 -31 9 -30 0 -236 98 -312 148 -55 37
-123 74 -316 173 -203 103 -245 134 -245 175 0 88 -92 304 -140 329 -15 8 -30
21 -33 29 -8 19 -130 76 -197 91 -93 21 -148 17 -242 -15z"/>
<path d="M19279 13715 c-3 -2 -36 -7 -75 -10 -38 -3 -89 -13 -114 -22 -70 -26
-215 -126 -268 -184 -26 -29 -63 -69 -82 -89 l-35 -36 -105 -4 c-58 -2 -130
-3 -160 -3 -30 0 -582 2 -1227 5 -1140 6 -1172 6 -1189 -13 -14 -16 -17 -40
-17 -144 0 -110 2 -127 18 -139 35 -25 215 -31 1065 -32 1394 -2 1562 -4 1588
-20 12 -8 22 -20 22 -26 0 -19 62 -140 96 -188 65 -90 138 -140 263 -177 105
-31 319 -18 426 26 134 56 207 115 304 244 109 145 122 342 36 522 -82 171
-279 295 -469 295 -40 0 -75 -2 -77 -5z"/>
<path d="M1334 13385 c-38 -20 -71 -39 -74 -44 -3 -4 -20 -16 -38 -26 -32 -19
-118 -118 -142 -164 -55 -107 -53 -237 7 -361 25 -51 80 -114 128 -146 34 -22
144 -53 151 -42 4 6 23 8 45 4 41 -7 155 20 209 48 17 9 44 23 60 32 17 8 30
19 30 24 0 12 151 165 176 178 14 8 154 11 455 10 507 0 1197 0 1524 1 127 0
390 0 586 1 409 0 367 -12 376 107 4 43 11 78 19 84 23 19 16 46 -11 53 -14 4
-30 4 -35 1 -5 -3 -19 -1 -30 5 -24 13 -578 25 -995 22 -493 -4 -1170 -14
-1177 -18 -3 -2 -157 -4 -340 -5 -334 0 -388 5 -388 35 0 8 -11 27 -24 43 -12
15 -31 44 -40 64 -12 26 -35 47 -77 72 -72 43 -133 57 -244 57 -76 0 -89 -3
-151 -35z m100 -217 c5 -21 3 -28 -9 -28 -8 0 -15 -4 -15 -10 0 -5 7 -10 15
-10 8 0 15 -9 15 -20 0 -11 4 -20 9 -20 18 0 24 -42 8 -57 -13 -13 -13 -19 -1
-42 12 -22 12 -26 -1 -29 -20 -5 -19 -18 2 -26 14 -6 14 -8 -3 -20 -16 -12
-20 -12 -26 -1 -9 14 -48 9 -60 -8 -4 -6 -13 -4 -23 6 -9 10 -26 17 -39 17
-29 0 -46 18 -46 50 0 32 18 57 44 62 11 1 18 6 15 9 -7 11 23 39 42 39 11 0
19 2 19 4 0 2 3 11 6 20 3 9 1 16 -5 16 -6 0 -11 -8 -12 -17 0 -12 -2 -13 -6
-5 -4 10 -9 10 -23 -3 -33 -30 -42 -6 -13 33 16 20 22 33 16 28 -8 -4 -13 -2
-13 4 0 12 36 5 58 -12 9 -8 12 -5 12 9 0 10 5 24 12 31 14 14 13 14 22 -20z
m141 -58 c-1 -11 -4 -22 -7 -25 -9 -9 -30 23 -23 35 11 17 32 11 30 -10z m-85
-15 c0 -8 -7 -15 -15 -15 -16 0 -20 12 -8 23 11 12 23 8 23 -8z m20 -45 c0 -5
-7 -10 -16 -10 -8 0 -12 5 -9 10 3 6 10 10 16 10 5 0 9 -4 9 -10z m-250 -30
c0 -5 -5 -10 -11 -10 -5 0 -7 5 -4 10 3 6 8 10 11 10 2 0 4 -4 4 -10z m245
-70 c3 -5 -1 -10 -9 -10 -9 0 -16 5 -16 10 0 6 4 10 9 10 6 0 13 -4 16 -10z
m65 6 c0 -2 -9 -6 -20 -9 -11 -3 -18 -1 -14 4 5 9 34 13 34 5z"/>
<path d="M1400 13055 c33 -19 46 -19 30 0 -7 8 -22 15 -34 15 -20 -1 -20 -2 4
-15z"/>
<path d="M16625 12729 c-143 -4 -330 -4 -416 -1 -211 7 -213 6 -229 -130 -15
-124 -9 -163 28 -173 15 -4 444 -9 955 -11 l927 -3 27 23 27 23 -18 75 c-9 40
-17 78 -16 83 2 6 2 25 1 42 -2 63 -8 64 -515 69 -248 3 -464 6 -481 7 -16 1
-147 -1 -290 -4z"/>
<path d="M19575 12282 c-38 -7 -150 -45 -190 -65 -22 -11 -80 -53 -128 -94
l-88 -75 -297 -1 c-163 0 -524 3 -802 7 -278 4 -793 9 -1145 12 -352 2 -658 6
-680 9 -22 2 -98 7 -170 11 -171 9 -175 6 -191 -128 -6 -51 -9 -112 -6 -135 4
-36 8 -43 31 -47 89 -19 622 -27 1981 -30 1038 -3 1225 -6 1225 -17 0 -8 22
-53 48 -101 60 -106 125 -163 241 -209 79 -31 84 -31 187 -25 150 9 224 36
326 119 139 113 200 267 175 443 -6 43 -15 80 -21 82 -6 2 -11 14 -11 27 0 14
-8 29 -18 34 -10 5 -24 21 -31 34 -14 26 -79 78 -137 109 -67 36 -214 56 -299
40z"/>
<path d="M1455 12129 c-187 -14 -365 -111 -476 -259 -49 -65 -89 -141 -89
-169 0 -11 -4 -22 -9 -26 -5 -3 -12 -34 -16 -68 -9 -87 17 -224 58 -302 57
-108 171 -196 307 -236 53 -16 240 -17 272 -2 13 6 52 21 88 34 103 36 135 55
202 122 107 107 183 214 207 288 19 58 -58 54 1261 65 1435 13 1840 11 1874
-6 39 -20 43 -29 56 -150 6 -58 21 -139 32 -180 11 -41 24 -102 28 -135 7 -53
92 -360 136 -493 65 -193 232 -546 358 -757 77 -128 105 -169 199 -295 26 -35
47 -70 47 -77 0 -28 55 -12 121 36 38 28 81 57 98 65 16 9 31 19 33 24 1 4 20
21 41 36 20 16 37 35 37 43 0 14 -35 71 -51 83 -7 5 -181 271 -216 330 -11 19
-40 71 -63 115 -24 44 -48 87 -55 95 -7 8 -36 65 -64 125 -29 61 -61 127 -72
148 -10 22 -19 43 -19 49 0 5 -7 24 -14 41 -8 18 -24 57 -34 87 -11 30 -34 93
-51 140 -17 47 -41 137 -55 200 -13 63 -29 133 -35 155 -6 22 -11 56 -11 76 0
20 -7 55 -15 78 -8 22 -17 67 -20 98 -13 118 -25 269 -23 288 6 78 2 127 -11
134 -8 5 -46 7 -85 5 -182 -9 -565 -16 -1036 -19 -588 -4 -1203 -13 -1365 -20
-60 -2 -175 -7 -255 -10 -80 -3 -196 -8 -258 -11 -62 -3 -172 -8 -245 -10 -72
-2 -164 -6 -203 -8 -67 -5 -75 -3 -108 22 -19 15 -38 34 -41 42 -10 30 -111
128 -163 159 -48 29 -96 43 -177 53 -16 2 -70 1 -120 -3z"/>
<path d="M15834 11446 c-39 -17 -64 -86 -64 -175 0 -64 20 -99 58 -102 31 -3
113 -6 347 -13 420 -12 519 -16 625 -27 89 -9 112 -16 153 -41 26 -17 51 -36
55 -42 4 -7 45 -41 91 -77 47 -35 93 -72 103 -81 9 -9 35 -26 57 -37 22 -12
43 -25 46 -31 4 -6 24 -21 44 -35 33 -20 39 -31 49 -81 7 -31 12 -77 12 -101
0 -56 32 -150 69 -205 30 -43 122 -128 139 -128 5 0 26 -11 47 -25 50 -34 111
-55 163 -55 23 0 42 -3 42 -8 0 -10 106 -6 155 7 94 23 148 41 183 59 20 10
51 27 69 36 47 25 143 134 185 209 41 76 71 167 62 191 -4 9 -1 16 6 16 14 0
5 67 -12 88 -8 9 -6 12 6 12 20 0 20 5 -4 75 -38 110 -106 190 -225 267 -88
55 -228 74 -385 51 -89 -13 -151 -38 -227 -93 -31 -22 -61 -40 -68 -40 -6 0
-24 -13 -40 -30 -37 -39 -66 -38 -117 3 -112 90 -209 172 -273 230 -23 20 -46
37 -51 37 -5 0 -25 16 -45 34 -75 71 -84 73 -484 85 -198 7 -443 18 -545 26
-220 17 -189 17 -226 1z"/>
<path d="M4126 11242 c-2 -2 -235 -5 -517 -7 -325 -2 -533 -8 -565 -15 -49
-11 -62 -22 -340 -299 -159 -158 -323 -314 -364 -347 -41 -32 -82 -65 -90 -73
-36 -34 -101 -52 -188 -53 -48 0 -97 2 -110 6 -12 4 -27 4 -34 0 -16 -10 -408
-12 -414 -2 -3 5 -24 21 -47 36 -163 104 -255 117 -407 56 -111 -44 -155 -76
-212 -151 -56 -72 -91 -141 -108 -214 -11 -48 -10 -63 5 -115 36 -127 107
-206 225 -249 25 -9 52 -20 60 -24 30 -15 164 -5 235 19 39 12 74 26 79 31 6
5 17 9 26 9 17 0 83 66 131 130 14 20 38 66 53 103 50 126 70 149 114 132 9
-3 106 -5 217 -5 110 1 219 1 242 1 23 -1 66 5 95 13 29 7 67 11 85 9 18 -3
45 2 64 11 18 9 37 16 44 16 15 0 189 185 193 206 2 8 8 14 13 14 5 0 33 25
62 57 28 31 62 65 75 76 12 12 22 24 22 29 0 10 101 108 112 108 4 0 8 4 8 8
0 13 132 140 168 162 17 11 44 19 59 19 15 0 57 2 93 5 111 8 878 25 1168 26
48 0 61 3 56 13 -5 8 -2 8 9 -2 12 -9 17 -10 17 -2 0 7 5 9 12 5 20 -12 276
-27 317 -18 23 5 23 6 17 109 -6 122 -22 164 -64 167 -41 4 -613 3 -616 0z"/>
<path d="M4667 10503 c-1 -1 -69 -4 -152 -6 -82 -3 -168 -8 -190 -11 -22 -2
-200 -7 -395 -11 -195 -3 -376 -8 -402 -11 -44 -5 -55 -14 -158 -115 -62 -60
-116 -109 -120 -109 -5 0 -13 -6 -17 -14 -9 -16 -136 -154 -240 -262 -40 -41
-79 -84 -87 -96 -9 -12 -55 -63 -102 -115 -97 -103 -93 -102 -184 -59 -38 18
-64 21 -165 21 -118 0 -122 -1 -225 -42 -110 -45 -138 -66 -216 -168 -70 -92
-87 -138 -90 -250 -4 -112 9 -162 64 -249 86 -135 273 -200 445 -155 93 25
218 86 224 110 3 10 9 17 13 14 21 -13 118 112 177 227 19 37 27 222 11 248
-10 16 -8 23 12 45 13 14 29 25 37 25 7 0 13 5 13 12 0 6 21 32 48 57 26 26
91 92 145 149 54 56 102 102 107 102 5 0 17 13 26 29 10 16 28 35 41 42 13 7
23 17 23 22 0 5 21 31 48 57 26 26 52 53 57 59 6 7 45 46 87 86 62 60 84 75
110 77 51 2 122 4 423 11 154 4 336 10 405 13 108 6 364 14 425 14 130 0 140
5 132 69 -9 72 -52 159 -84 172 -22 8 -239 19 -246 12z"/>
<path d="M15326 10211 c-15 -33 -30 -83 -33 -110 -5 -47 -4 -50 23 -64 42 -21
158 -54 239 -67 64 -11 134 -26 270 -60 28 -7 68 -16 90 -21 54 -11 130 -27
187 -40 55 -12 50 -12 233 -39 77 -12 163 -23 190 -25 28 -2 78 -6 113 -9 34
-3 73 -11 86 -18 13 -7 81 -67 152 -134 71 -67 163 -152 204 -190 42 -38 108
-98 146 -134 39 -36 102 -90 139 -120 104 -83 227 -193 236 -210 4 -8 17 -47
29 -86 18 -60 30 -79 73 -121 110 -104 169 -128 313 -125 86 1 111 6 173 32
85 35 149 79 215 150 126 134 154 355 62 484 -65 90 -189 169 -288 184 -139
20 -305 -41 -449 -165 -27 -24 -57 -43 -66 -43 -20 0 -56 31 -238 209 -272
264 -505 475 -566 513 -34 20 -82 39 -107 43 -26 5 -56 9 -67 11 -11 2 -36 6
-55 8 -19 3 -53 7 -75 10 -22 3 -78 10 -125 15 -123 14 -374 56 -610 101 -288
56 -314 62 -325 68 -5 4 -40 8 -76 10 l-66 3 -27 -60z"/>
<path d="M4975 9955 c-86 -23 -136 -60 -260 -191 -66 -70 -179 -188 -251 -263
-73 -75 -164 -170 -203 -211 -145 -153 -257 -264 -304 -301 -40 -32 -55 -38
-91 -36 -48 2 -126 -29 -126 -50 0 -7 -5 -13 -10 -13 -15 0 -56 -39 -318 -304
-131 -131 -306 -307 -390 -391 l-152 -153 -33 16 c-17 8 -38 24 -45 34 -19 26
-125 96 -190 125 -99 44 -229 49 -337 13 -87 -29 -197 -83 -250 -124 -143
-109 -240 -309 -220 -454 23 -164 98 -295 220 -384 133 -98 348 -118 522 -48
206 83 387 296 398 470 2 39 30 100 45 100 5 0 51 43 102 96 51 52 139 141
195 197 56 56 108 108 115 115 124 127 150 152 158 152 5 0 12 11 16 25 3 14
10 25 14 25 5 0 23 16 42 36 18 21 62 67 98 103 36 36 73 78 83 94 13 21 25
27 51 27 18 0 39 -7 46 -15 7 -8 25 -15 41 -15 35 0 129 40 129 54 0 6 38 52
85 101 47 50 88 98 91 108 3 9 11 17 19 17 7 0 21 12 30 27 10 14 32 41 49 58
96 99 221 232 296 314 47 51 114 124 150 161 36 37 74 78 86 91 12 13 30 31
41 40 11 9 26 26 35 37 8 12 47 35 86 52 83 35 152 96 152 135 0 14 -4 25 -9
25 -5 0 -7 9 -4 20 3 12 0 20 -6 20 -7 0 -23 11 -37 25 -28 28 -76 55 -96 54
-7 0 -35 -6 -63 -14z"/>
<path d="M15004 9713 c-15 -27 -33 -55 -40 -63 -7 -8 -15 -41 -19 -73 -9 -68
1 -83 54 -93 20 -4 55 -15 78 -25 37 -16 157 -44 231 -54 13 -2 29 -8 37 -15
7 -6 19 -10 27 -9 19 4 129 -21 158 -36 14 -6 47 -17 74 -24 27 -7 81 -27 121
-46 62 -30 91 -54 197 -162 67 -69 137 -140 153 -157 17 -17 122 -119 234
-226 341 -326 865 -852 896 -899 25 -37 30 -54 31 -117 3 -104 30 -158 101
-207 78 -53 153 -60 235 -23 76 36 115 96 129 196 8 58 7 80 -6 120 -9 27 -21
53 -28 58 -13 10 -57 23 -96 27 -29 4 -31 6 -331 300 -762 748 -1118 1113
-1207 1240 -33 46 -64 59 -358 150 -22 7 -76 23 -120 35 -44 13 -166 51 -271
86 -105 35 -204 64 -222 64 -27 0 -35 -7 -58 -47z"/>
<path d="M6460 9417 c-91 -58 -158 -110 -204 -156 l-38 -39 40 -53 c51 -70
181 -203 253 -260 30 -24 109 -87 175 -139 65 -53 137 -108 159 -122 22 -15
72 -50 110 -78 189 -137 438 -287 645 -390 58 -28 113 -55 122 -60 36 -19 266
-118 313 -135 56 -20 113 -42 135 -54 8 -4 62 -22 120 -40 58 -18 133 -41 168
-52 34 -10 71 -19 82 -19 10 0 22 -4 25 -10 3 -5 19 -10 35 -10 17 0 53 -9 82
-20 29 -11 81 -23 116 -27 l62 -6 0 119 c0 65 5 148 10 182 6 35 8 72 5 81 -7
22 -49 43 -70 35 -8 -4 -22 -1 -30 6 -9 7 -25 14 -38 16 -31 4 -134 30 -187
48 -25 8 -106 34 -180 56 -74 23 -144 45 -155 50 -11 5 -56 21 -100 36 -44 15
-89 33 -100 40 -11 7 -43 22 -71 33 -220 86 -620 320 -864 506 -57 43 -152
120 -186 150 -6 6 -40 35 -75 65 -35 30 -109 103 -164 163 -55 59 -107 112
-115 117 -11 6 -35 -4 -80 -33z"/>
<path d="M5360 9274 c-18 -16 -46 -46 -62 -69 -35 -47 -163 -187 -343 -374
-71 -74 -148 -153 -170 -177 -22 -23 -89 -91 -148 -151 -59 -59 -112 -112
-117 -118 -5 -5 -37 -40 -72 -76 -35 -36 -99 -105 -143 -154 -96 -106 -197
-214 -285 -305 -36 -37 -105 -111 -155 -163 -49 -53 -158 -167 -241 -253
l-151 -157 -69 -2 c-117 -5 -298 -81 -379 -160 -26 -25 -51 -45 -56 -45 -5 0
-9 -4 -9 -10 0 -5 -18 -33 -40 -62 -22 -29 -40 -60 -40 -68 0 -8 -10 -35 -21
-60 -17 -36 -21 -63 -20 -140 1 -146 29 -207 142 -319 99 -98 265 -147 390
-116 146 36 214 71 295 152 115 114 163 224 168 388 3 98 -37 217 -86 256 -19
15 -19 17 -4 53 9 22 61 83 122 144 90 90 304 320 419 451 37 43 177 191 270
287 138 142 312 324 430 449 66 71 134 143 150 160 17 18 72 79 124 136 52 57
130 140 173 184 44 44 87 88 96 98 9 10 26 20 38 23 14 4 25 18 33 44 13 45 5
66 -38 92 -14 9 -44 31 -66 47 -59 45 -94 49 -135 15z"/>
<path d="M14568 9189 c-89 -92 -93 -110 -38 -160 23 -21 46 -39 50 -39 10 0
154 -110 241 -185 25 -22 85 -69 133 -105 48 -36 92 -70 99 -75 7 -6 47 -37
90 -69 91 -70 207 -189 207 -214 0 -9 -9 -46 -20 -82 -41 -135 -13 -276 77
-387 47 -57 179 -117 284 -129 31 -4 63 -10 70 -15 15 -9 17 -289 4 -606 l-7
-163 -46 -22 c-25 -13 -60 -37 -77 -54 -17 -16 -45 -39 -63 -49 -18 -11 -32
-22 -32 -26 0 -4 -22 -30 -50 -58 -27 -28 -50 -60 -50 -70 0 -11 -6 -26 -14
-34 -8 -7 -20 -48 -27 -89 -11 -67 -10 -86 8 -180 12 -58 28 -119 36 -134 9
-16 22 -42 30 -59 32 -67 138 -152 245 -196 81 -34 94 -37 195 -37 92 -1 119
3 180 24 99 36 197 95 262 159 28 27 75 95 91 130 10 22 23 47 29 55 48 64 61
264 23 353 -67 161 -214 284 -387 323 -39 9 -72 21 -72 28 -2 11 -7 600 -7
751 -1 77 1 83 45 157 71 122 88 214 58 312 -27 89 -101 186 -175 231 -69 42
-170 69 -228 61 -26 -3 -50 -1 -62 6 -15 10 -22 10 -32 0 -36 -36 -66 -16
-345 228 -224 195 -446 377 -545 448 -84 59 -99 56 -180 -29z"/>
<path d="M5883 8612 c-21 -20 -83 -89 -137 -152 -122 -142 -235 -267 -346
-384 -133 -140 -327 -342 -415 -432 -44 -46 -111 -117 -150 -160 -38 -43 -94
-101 -123 -131 -29 -29 -50 -53 -47 -53 2 0 -26 -29 -63 -64 -132 -126 -193
-176 -215 -176 -37 0 -30 -76 16 -167 17 -34 33 -60 35 -58 3 2 14 -7 25 -21
17 -22 26 -25 56 -21 82 12 105 17 110 26 3 4 20 15 37 24 17 9 38 31 47 50 9
18 32 53 51 77 20 25 36 49 36 54 0 6 13 24 29 40 16 17 69 76 117 131 48 55
102 116 120 135 79 84 101 108 157 170 33 36 104 110 157 165 53 55 176 186
274 290 98 105 247 258 330 340 148 146 176 183 176 228 0 23 -16 35 -128 94
-82 43 -103 42 -149 -5z"/>
<path d="M13870 8563 c0 -6 -14 -16 -32 -24 -17 -7 -51 -33 -76 -57 -41 -42
-44 -47 -38 -85 8 -51 10 -54 49 -73 18 -9 101 -60 185 -113 194 -122 247
-155 297 -182 22 -12 53 -31 69 -42 16 -11 50 -31 77 -44 26 -14 62 -40 79
-59 28 -33 30 -40 31 -122 1 -120 -1 -300 -7 -542 -3 -113 -5 -212 -5 -220 3
-66 0 -198 -5 -214 -15 -48 -60 -41 -118 15 -22 22 -44 39 -49 39 -19 0 -96
63 -101 84 -3 11 2 70 10 129 20 133 13 209 -19 225 -36 17 -111 40 -134 40
-29 1 -85 37 -164 108 -37 32 -95 84 -130 114 -35 30 -95 84 -134 120 -38 36
-106 97 -150 135 -43 39 -128 116 -187 171 -59 56 -121 107 -138 112 -27 10
-33 8 -62 -19 -18 -16 -36 -29 -41 -29 -5 0 -28 -14 -53 -30 -56 -39 -64 -69
-33 -115 13 -19 27 -35 30 -35 4 0 23 -15 42 -32 20 -18 66 -58 103 -88 36
-30 125 -107 198 -170 72 -63 174 -152 226 -196 191 -164 230 -223 228 -346
-2 -130 73 -206 192 -193 36 3 62 1 76 -7 12 -7 41 -24 65 -37 24 -13 46 -27
49 -32 6 -9 78 -59 86 -59 10 0 102 -105 137 -158 67 -101 96 -172 106 -263
11 -95 7 -298 -9 -532 l-10 -159 -83 -82 c-129 -131 -169 -215 -168 -358 2
-194 96 -334 284 -424 74 -35 79 -36 164 -31 128 8 170 18 267 67 135 68 234
188 284 342 67 205 -33 409 -246 508 -24 11 -50 20 -58 20 -8 0 -33 9 -57 19
-23 11 -53 21 -66 23 -14 2 -26 11 -29 23 -2 11 -3 112 -1 225 1 113 3 271 3
352 l1 147 -82 77 c-96 89 -104 114 -51 159 91 77 98 110 99 483 1 634 0 712
-7 723 -3 6 -2 14 4 18 7 4 8 28 3 66 -7 66 -29 95 -106 147 -22 15 -65 45
-95 67 -30 22 -78 54 -106 70 -28 17 -59 40 -69 51 -10 11 -23 20 -30 20 -12
0 -39 17 -276 174 -136 90 -219 127 -219 99z"/>
<path d="M10568 8125 c-3 -3 -36 -8 -74 -11 -38 -3 -75 -11 -83 -19 -15 -15
-16 -24 -26 -296 l-8 -197 23 -7 c12 -4 69 -4 125 0 123 8 144 21 146 88 1 23
2 53 4 67 1 14 5 100 9 192 6 159 5 168 -13 178 -20 10 -94 14 -103 5z"/>
<path d="M6587 8082 c-3 -4 -7 -23 -11 -43 -4 -20 -19 -48 -36 -64 -17 -16
-30 -34 -30 -41 0 -7 -4 -14 -8 -16 -4 -1 -35 -37 -67 -78 -33 -41 -107 -124
-165 -185 -58 -60 -127 -135 -155 -165 -27 -30 -114 -124 -194 -209 -80 -85
-177 -188 -216 -229 -189 -202 -224 -240 -272 -291 -29 -31 -101 -105 -159
-166 -58 -60 -143 -150 -188 -200 -44 -49 -131 -141 -192 -205 -61 -63 -147
-155 -190 -205 -129 -147 -250 -263 -299 -286 -25 -12 -51 -31 -57 -43 -6 -11
-21 -30 -34 -41 -23 -20 -29 -50 -25 -141 1 -38 11 -54 57 -93 27 -23 126 -49
167 -44 41 6 77 43 117 123 27 56 89 135 170 220 163 171 232 245 310 336 47
54 105 120 130 145 108 110 277 294 380 412 62 70 161 181 222 245 60 64 122
133 136 152 15 19 45 53 67 75 22 22 58 60 79 85 21 25 88 99 149 165 62 66
132 142 158 170 99 109 281 312 316 353 21 24 47 54 59 67 54 59 64 77 53 96
-5 10 -15 19 -22 19 -7 0 -28 11 -48 24 -52 35 -192 76 -202 58z"/>
<path d="M9207 8064 c-3 -5 -8 -142 -11 -304 -4 -163 -9 -309 -11 -326 -2 -16
-6 -81 -9 -144 -9 -159 -16 -267 -21 -320 -2 -25 -7 -135 -10 -245 -5 -192 -8
-243 -24 -525 -4 -69 -8 -231 -10 -361 l-2 -236 32 -7 c45 -9 81 -8 139 5 80
17 83 30 96 439 4 113 8 219 9 235 1 17 5 102 10 190 4 88 8 162 10 165 2 3 6
79 9 170 9 217 14 349 22 555 3 94 8 188 9 210 8 94 20 345 19 398 -1 87 -16
98 -146 104 -58 3 -108 2 -111 -3z"/>
<path d="M9811 8047 c-5 -13 -12 -122 -15 -243 -13 -479 -17 -581 -21 -639 -6
-75 -13 -220 -20 -395 -3 -74 -8 -166 -10 -205 -6 -70 -10 -213 -20 -565 -12
-472 -22 -552 -83 -678 -19 -38 -22 -56 -14 -64 12 -12 117 -16 177 -7 42 7
116 42 133 62 10 12 26 181 37 397 3 63 8 144 10 180 2 36 7 169 10 295 3 127
7 264 10 305 2 41 7 156 11 255 4 99 8 196 9 215 1 19 5 134 9 255 4 121 9
261 11 310 15 317 17 502 6 523 -11 21 -19 22 -122 22 -105 0 -110 -1 -118
-23z"/>
<path d="M7063 7783 c-3 -10 -19 -30 -35 -44 -15 -14 -28 -31 -28 -37 0 -15
-216 -264 -384 -442 -76 -81 -245 -265 -311 -339 -22 -25 -84 -90 -137 -145
-54 -55 -98 -102 -98 -104 0 -1 -17 -19 -38 -40 -57 -55 -68 -119 -87 -532
-27 -591 -42 -831 -52 -841 -5 -5 -60 -29 -123 -54 -159 -64 -236 -125 -310
-245 -79 -131 -81 -300 -4 -458 28 -58 118 -151 145 -152 9 0 27 -8 40 -18 14
-11 59 -24 103 -31 70 -12 89 -11 163 5 46 10 83 22 83 26 0 5 6 8 13 8 27 -1
124 58 180 110 33 30 79 84 103 120 46 70 99 217 84 235 -5 6 -3 17 5 28 11
15 8 31 -17 105 -32 92 -54 127 -126 201 -24 25 -49 54 -56 63 -12 16 -8 91
24 443 5 66 17 262 25 435 8 173 19 331 24 351 16 67 39 96 276 343 22 23 60
64 84 92 133 149 207 231 225 249 12 12 50 54 86 94 35 40 91 100 124 134 130
136 222 238 248 277 31 44 23 63 -44 107 -116 76 -172 92 -185 56z"/>
<path d="M12420 7704 c-40 -13 -145 -71 -165 -92 -29 -28 -24 -43 23 -78 71
-53 248 -212 304 -273 64 -70 64 -84 -1 -134 -76 -59 -197 -186 -222 -233 -51
-95 -62 -147 -56 -258 6 -123 30 -189 102 -280 84 -107 211 -173 343 -179 26
-2 92 6 147 16 55 10 113 20 130 20 48 3 52 -21 44 -253 -4 -113 -10 -367 -14
-565 -11 -529 -12 -576 -14 -626 -1 -42 -5 -48 -51 -85 -28 -21 -69 -54 -91
-72 -23 -17 -47 -32 -55 -32 -8 0 -14 -6 -14 -13 0 -7 -18 -30 -40 -51 -92
-87 -135 -273 -98 -419 21 -81 58 -159 97 -201 82 -89 209 -151 326 -159 148
-11 344 64 454 174 154 154 209 352 148 527 -29 82 -54 120 -110 171 -43 39
-152 105 -212 129 -84 32 -78 -10 -69 492 5 245 8 540 8 655 -1 201 -3 248
-19 415 -7 76 -5 88 40 240 45 149 50 232 20 333 -41 143 -177 272 -350 332
-109 38 -185 73 -185 86 0 5 -6 9 -12 9 -7 1 -33 27 -58 59 -49 65 -192 241
-248 309 -35 41 -59 50 -102 36z"/>
<path d="M7733 7414 c-7 -3 -43 -45 -80 -92 -37 -48 -75 -94 -83 -103 -52 -54
-299 -318 -364 -389 -36 -39 -45 -105 -47 -317 0 -114 -5 -248 -9 -298 -4 -49
-11 -160 -14 -245 -4 -85 -8 -175 -11 -200 -2 -25 -7 -110 -10 -190 -3 -80 -7
-161 -9 -180 -2 -19 -7 -87 -10 -150 -6 -112 -11 -164 -21 -265 -3 -27 -7 -70
-9 -94 -4 -45 -24 -71 -55 -71 -9 0 -27 -9 -41 -20 -14 -11 -30 -20 -35 -20
-6 0 -22 -11 -37 -25 -15 -14 -32 -25 -39 -25 -6 0 -31 -20 -56 -45 -24 -25
-47 -45 -52 -45 -4 0 -14 -12 -22 -27 -7 -16 -23 -44 -35 -63 -70 -117 -63
-306 17 -446 23 -41 48 -74 54 -74 6 0 22 -11 35 -25 13 -14 31 -25 41 -25 9
0 22 -7 29 -15 7 -9 19 -14 27 -11 8 3 12 2 9 -2 -6 -10 96 -33 149 -33 43 0
111 9 135 18 8 4 19 5 23 4 5 -1 33 10 62 24 153 76 268 211 311 368 20 77 9
189 -26 265 -30 65 -117 160 -172 188 -42 22 -48 42 -39 130 10 83 12 128 36
629 8 171 17 324 20 340 2 17 7 104 10 195 11 343 34 567 63 633 18 39 182
235 302 359 122 127 172 194 168 227 -5 38 -107 113 -160 117 -24 2 -49 1 -55
-2z"/>
<path d="M8644 7383 c-22 -4 -65 -46 -95 -93 -9 -14 -27 -36 -39 -50 -97 -111
-166 -183 -377 -395 -134 -133 -243 -247 -243 -253 0 -6 -8 -13 -18 -16 -36
-12 -52 -70 -63 -234 -14 -202 -6 -379 20 -451 20 -58 48 -91 146 -175 73 -62
114 -86 235 -138 74 -32 89 -36 142 -43 67 -8 106 9 156 66 19 22 38 39 43 39
5 0 24 15 44 33 19 17 47 42 62 53 44 33 91 138 102 224 6 41 10 165 10 275 1
110 4 239 7 287 9 117 1 127 -69 91 -29 -14 -64 -34 -79 -44 -14 -11 -31 -19
-37 -19 -7 0 -25 -10 -41 -22 -23 -17 -29 -27 -25 -47 13 -71 15 -305 4 -400
-11 -90 -16 -109 -39 -135 -26 -29 -29 -30 -66 -18 -164 50 -189 55 -302 66
-24 3 -47 7 -50 11 -4 4 -7 97 -7 208 1 168 4 208 18 239 20 43 123 148 146
148 9 0 25 14 36 30 11 16 25 30 31 30 10 0 85 68 214 194 67 66 207 219 236
257 11 15 31 36 44 47 54 43 58 184 7 216 -23 14 -117 26 -153 19z"/>
<path d="M10455 7263 c-69 -8 -72 -11 -79 -55 -7 -48 -12 -164 -22 -438 -3
-102 -8 -210 -10 -240 -6 -87 -21 -484 -29 -795 -7 -247 -11 -320 -26 -395
-16 -84 -30 -143 -39 -165 -36 -95 -68 -349 -71 -565 -1 -47 -6 -113 -11 -147
-9 -55 -14 -65 -41 -82 -18 -10 -57 -22 -87 -26 -30 -4 -61 -11 -70 -15 -8 -4
-44 -20 -79 -36 -35 -16 -70 -39 -78 -51 -8 -12 -24 -25 -36 -29 -19 -6 -36
-20 -125 -107 -135 -132 -159 -361 -59 -565 49 -102 179 -220 257 -236 19 -4
49 -9 65 -13 17 -3 35 -9 40 -13 15 -11 166 -4 198 9 16 6 32 11 36 11 16 0
106 43 134 64 68 51 151 128 176 163 61 85 109 206 117 294 10 101 -34 299
-66 299 -5 0 -21 17 -35 38 -13 20 -40 47 -59 60 -60 41 -60 37 -52 577 2 116
6 218 11 228 4 10 18 17 36 17 45 0 65 31 78 118 15 105 29 296 37 486 3 87 8
171 9 185 2 14 6 96 10 181 3 85 8 162 10 170 2 8 6 112 10 230 12 450 17 588
24 678 9 106 5 139 -18 151 -20 10 -116 19 -156 14z"/>
<path d="M9254 5395 c-36 -22 -94 -91 -94 -113 0 -18 -141 -182 -251 -293 -64
-64 -129 -132 -145 -152 -16 -19 -39 -38 -51 -41 -21 -7 -23 -4 -23 27 0 18 7
78 15 133 18 119 19 190 4 233 -11 31 -13 33 -53 27 -22 -3 -53 -7 -68 -9 -15
-2 -34 -10 -43 -17 -8 -7 -15 -9 -15 -4 0 4 -4 4 -9 -1 -35 -37 -70 -490 -86
-1110 -5 -229 -9 -278 -27 -382 -9 -54 -15 -66 -47 -90 -20 -15 -51 -36 -69
-46 -18 -10 -67 -50 -108 -89 -77 -74 -132 -164 -137 -223 -1 -17 -5 -32 -8
-35 -8 -7 6 -145 20 -197 23 -83 138 -196 231 -227 116 -38 180 -29 338 46 69
33 86 46 98 73 7 19 22 36 33 40 18 5 84 127 109 200 21 61 21 128 0 190 -23
68 -50 107 -125 182 -53 52 -61 67 -44 77 5 3 7 24 4 45 -5 40 11 416 27 641
12 167 25 192 190 359 35 36 121 127 189 201 69 74 128 137 131 140 3 3 27 32
53 65 25 33 56 71 67 85 12 14 38 46 58 72 20 27 43 48 50 48 6 0 12 2 12 5 0
7 -24 59 -30 65 -13 13 -50 70 -50 78 0 6 -10 12 -22 16 -44 11 -83 6 -124
-19z"/>
<path d="M9959 3043 c-66 -17 -187 -73 -246 -115 -115 -81 -190 -181 -223
-299 -35 -128 -23 -217 47 -352 56 -107 188 -210 282 -220 15 -2 31 -6 36 -9
27 -15 107 -17 167 -5 37 8 70 12 72 9 3 -3 12 1 21 8 8 7 15 9 15 5 0 -4 7
-1 16 6 9 8 22 14 28 15 24 3 56 17 56 25 0 5 15 15 33 23 31 14 86 57 117 92
63 71 81 98 113 164 44 94 65 223 47 291 -32 117 -108 221 -212 290 -95 64
-270 97 -369 72z"/>
</g>
</svg>
